<?xml version="1.0" encoding="UTF-8" standalone="no"?><!DOCTYPE svg PUBLIC "-//W3C//DTD SVG 1.1//EN" "http://www.w3.org/Graphics/SVG/1.1/DTD/svg11.dtd"><svg width="100%" height="100%" viewBox="0 0 104 95" version="1.1" xmlns="http://www.w3.org/2000/svg" xmlns:xlink="http://www.w3.org/1999/xlink" xml:space="preserve" xmlns:serif="http://www.serif.com/" style="fill-rule:evenodd;clip-rule:evenodd;stroke-linejoin:round;stroke-miterlimit:2;"><path d="M16.392,49.816l0.439,0.165l18.088,9.044c0.136,0.088 0.282,0.161 0.408,0.262c0.338,0.272 0.373,0.39 0.604,0.75l9.043,18.087c0.056,0.147 0.126,0.289 0.166,0.44c0.159,0.61 0.051,1.278 -0.293,1.805c-0.086,0.132 -0.197,0.244 -0.296,0.365l-4.522,4.522c-0.303,0.249 -0.367,0.338 -0.734,0.49c-0.548,0.228 -1.181,0.228 -1.73,0c-0.367,-0.152 -0.431,-0.241 -0.734,-0.49l-27.131,-27.132c-0.249,-0.302 -0.339,-0.366 -0.491,-0.733c-0.227,-0.549 -0.227,-1.182 0,-1.731c0.152,-0.367 0.242,-0.431 0.491,-0.733l4.522,-4.522c0.121,-0.099 0.233,-0.211 0.364,-0.296c0.264,-0.172 0.561,-0.287 0.872,-0.337c0.309,-0.05 0.623,-0.003 0.934,0.044Zm-1.896,6.71l23.934,23.934l1.771,-1.771l-7.978,-15.956l-15.956,-7.978c-0.591,0.59 -1.181,1.18 -1.771,1.771Z"/><path d="M29.461,72.354c0.851,0.049 1.639,0.565 1.984,1.325c0.42,0.926 0.115,2.099 -0.702,2.743l-13.566,10.175c-0.928,0.661 -2.311,0.539 -3.062,-0.325c-0.808,-0.927 -0.673,-2.487 0.349,-3.293l13.566,-10.174c0.416,-0.297 0.911,-0.456 1.431,-0.451Z"/><path d="M20.431,63.31c1.325,0.085 2.4,1.421 2.123,2.728c-0.045,0.214 -0.121,0.421 -0.226,0.613c-0.052,0.096 -0.113,0.186 -0.177,0.275l-10.174,13.566c-0.713,0.904 -2.089,1.151 -3.031,0.546c-1.006,-0.646 -1.355,-2.13 -0.65,-3.17c0.02,-0.03 0.042,-0.059 0.063,-0.089l10.174,-13.566c0.208,-0.264 0.259,-0.296 0.378,-0.393c0.423,-0.346 0.968,-0.518 1.52,-0.51Z"/><path d="M9.095,76.875c2.344,0.022 4.669,0.999 6.328,2.658c2.614,2.614 3.431,6.852 1.759,10.302c-1.468,3.028 -4.717,5.128 -8.145,5.128c-2.291,0 -4.569,-0.923 -6.23,-2.508c-2.126,-2.027 -3.175,-5.131 -2.69,-8.021c0.488,-2.913 2.51,-5.527 5.203,-6.753c1.18,-0.537 2.483,-0.81 3.775,-0.806Zm-0.087,4.522c-2.087,0.02 -4.03,1.638 -4.417,3.702c-0.478,2.555 1.652,5.324 4.417,5.341c2.156,0.014 4.201,-1.733 4.507,-3.895c0.345,-2.436 -1.64,-4.975 -4.19,-5.139c-0.105,-0.007 -0.211,-0.01 -0.317,-0.009Z"/><path d="M88.534,49.772c0.4,0.108 0.519,0.107 0.872,0.337c0.131,0.085 0.243,0.197 0.365,0.296l4.522,4.522c0.248,0.302 0.338,0.366 0.49,0.733c0.227,0.549 0.227,1.182 0,1.731c-0.152,0.367 -0.242,0.431 -0.49,0.733l-27.132,27.132c-0.303,0.249 -0.367,0.338 -0.734,0.49c-0.548,0.228 -1.182,0.228 -1.73,0c-0.367,-0.152 -0.431,-0.241 -0.734,-0.49l-4.522,-4.522c-0.098,-0.121 -0.21,-0.233 -0.296,-0.365c-0.343,-0.527 -0.452,-1.195 -0.292,-1.805c0.039,-0.151 0.11,-0.293 0.165,-0.44l9.044,-18.087c0.231,-0.36 0.265,-0.478 0.604,-0.75c0.125,-0.101 0.271,-0.174 0.407,-0.262l18.088,-9.044c0.439,-0.165 0.441,-0.165 0.904,-0.236c0.156,0.009 0.313,0.018 0.469,0.027Zm-16.765,12.961l-7.978,15.956l1.771,1.771l23.934,-23.934l-1.77,-1.771c-5.319,2.659 -10.638,5.319 -15.957,7.978Z"/><path d="M74.75,72.357c0.367,0.032 0.722,0.137 1.032,0.325c0.083,0.051 0.102,0.066 0.181,0.123l13.566,10.174c0.727,0.574 1.066,1.568 0.815,2.436c-0.39,1.352 -2.183,2.096 -3.44,1.245c-0.03,-0.02 -0.059,-0.042 -0.089,-0.063l-13.566,-10.175c-0.789,-0.622 -1.104,-1.737 -0.745,-2.642c0.35,-0.881 1.288,-1.461 2.246,-1.423Z"/><path d="M11.57,0.017l0.443,0.1l20.349,6.783c0.314,0.135 0.407,0.151 0.679,0.364c0.101,0.08 0.189,0.176 0.283,0.264l42.959,47.481c0.093,0.127 0.199,0.245 0.278,0.381c0.477,0.822 0.364,1.936 -0.271,2.645c-0.739,0.824 -2.09,0.987 -3.009,0.323c-0.127,-0.092 -0.234,-0.21 -0.352,-0.315l-42.56,-47.041l-15.496,-5.165l5.165,15.496l47.041,42.56l0.315,0.352c0.079,0.137 0.172,0.266 0.236,0.41c0.384,0.869 0.15,1.964 -0.559,2.599c-0.71,0.636 -1.821,0.749 -2.644,0.271c-0.136,-0.079 -0.255,-0.186 -0.382,-0.279l-47.481,-42.959c-0.233,-0.25 -0.311,-0.302 -0.475,-0.606c-0.061,-0.114 -0.102,-0.237 -0.153,-0.355l-6.783,-20.349c-0.088,-0.392 -0.141,-0.492 -0.108,-0.898c0.061,-0.757 0.528,-1.465 1.202,-1.819c0.361,-0.189 0.474,-0.179 0.869,-0.252c0.151,0.003 0.303,0.006 0.454,0.009Z"/><path d="M94.293,0.663c-0.606,-0.606 -1.502,-0.818 -2.313,-0.547l-20.349,6.783c-0.369,0.125 -0.701,0.339 -0.961,0.629l-15.624,17.269l3.048,3.369l15.529,-17.163l15.496,-5.167l-5.164,15.497l-17.62,15.943l3.035,3.353l18.058,-16.341c0.29,-0.262 0.507,-0.592 0.626,-0.96l6.783,-20.349c0.272,-0.814 0.061,-1.71 -0.544,-2.316Z" style="fill-rule:nonzero;"/><path d="M34.944,47.014l-7.233,7.995c-0.839,0.927 -0.767,2.355 0.158,3.194c0.925,0.835 2.356,0.767 3.193,-0.16l7.233,-7.995l-3.351,-3.034Z" style="fill-rule:nonzero;"/><path d="M45.256,56.345l-8.343,7.547c-0.925,0.839 -0.997,2.268 -0.158,3.195c0.445,0.493 1.06,0.744 1.675,0.744c0.541,0 1.083,-0.193 1.517,-0.584l8.678,-7.852l-3.369,-3.05Z" style="fill-rule:nonzero;"/><path d="M83.78,63.312c0.589,0.049 1.145,0.301 1.539,0.733c0.066,0.072 0.08,0.092 0.14,0.168l10.174,13.566c0.536,0.751 0.586,1.802 0.101,2.567c-0.582,0.919 -1.879,1.308 -2.881,0.831c-0.329,-0.156 -0.612,-0.399 -0.837,-0.685l-10.175,-13.566c-0.77,-1.08 -0.417,-2.755 0.776,-3.368c0.356,-0.183 0.758,-0.259 1.163,-0.246Z"/><path d="M95.013,76.875c2.323,0.022 4.63,0.98 6.289,2.62c2.641,2.609 3.472,6.886 1.797,10.34c-1.468,3.028 -4.716,5.128 -8.144,5.128c-2.291,0 -4.569,-0.923 -6.231,-2.508c-2.127,-2.028 -3.174,-5.131 -2.69,-8.021c0.49,-2.92 2.511,-5.528 5.204,-6.753c1.182,-0.538 2.483,-0.81 3.775,-0.806Zm-0.087,4.522c-2.096,0.02 -4.046,1.65 -4.422,3.73c-0.463,2.561 1.69,5.331 4.48,5.313c2.156,-0.013 4.177,-1.783 4.457,-3.951c0.315,-2.448 -1.705,-4.972 -4.284,-5.088c-0.077,-0.003 -0.154,-0.005 -0.231,-0.004Z"/></svg>