<?xml version="1.0" encoding="UTF-8" standalone="no"?><!DOCTYPE svg PUBLIC "-//W3C//DTD SVG 1.1//EN" "http://www.w3.org/Graphics/SVG/1.1/DTD/svg11.dtd"><svg width="100%" height="100%" viewBox="0 0 59 74" version="1.1" xmlns="http://www.w3.org/2000/svg" xmlns:xlink="http://www.w3.org/1999/xlink" xml:space="preserve" xmlns:serif="http://www.serif.com/" style="fill-rule:evenodd;clip-rule:evenodd;stroke-linejoin:round;stroke-miterlimit:2;"><path d="M29.96,0.118c6.555,1.621 13.132,3.115 19.789,4.256c2.47,0.423 4.962,0.87 7.448,0.881l1.769,0.003c0,11.583 0.014,23.166 0,34.749c-0.017,4.459 -1.297,8.92 -3.55,12.838c-3.23,5.615 -8.16,10.093 -13.521,13.687c-3.689,2.473 -7.59,4.633 -11.747,6.229l-0.03,0.012l-0.64,0.241c-8.03,-3.076 -15.568,-7.843 -21.286,-14.012c-3.727,-4.021 -6.652,-8.895 -7.723,-14.283c-0.308,-1.551 -0.463,-3.13 -0.469,-4.713l0,-0.064l0,-34.684c2.101,-0.003 4.191,-0.123 6.335,-0.429c7.608,-1.084 15.148,-2.857 22.598,-4.693l0.073,-0.018l0.477,-0.118c0.159,0.039 0.318,0.079 0.477,0.118Zm-0.587,3.482c-6.929,1.693 -13.907,3.296 -20.958,4.422c-1.628,0.26 -3.262,0.492 -4.906,0.623l-0.04,0.003c0,10.45 -0.014,20.9 0,31.349c0.014,3.524 0.936,6.997 2.589,10.148c2.936,5.596 7.794,9.995 13.025,13.508c3.275,2.199 6.763,4.113 10.383,5.628l0.021,0.009c6.866,-2.824 13.303,-6.878 18.353,-12.16c2.893,-3.027 5.314,-6.56 6.619,-10.606c0.685,-2.124 1.036,-4.356 1.038,-6.584l0,-31.292c-0.067,-0.005 -0.135,-0.01 -0.203,-0.016c-4.939,-0.416 -9.749,-1.458 -14.579,-2.486c-3.663,-0.78 -7.308,-1.617 -10.939,-2.501l-0.183,-0.045l-0.11,-0.027c-0.037,0.009 -0.074,0.018 -0.11,0.027Z"/><path d="M30.094,7.294c6.73,1.627 13.531,3.163 20.294,4.211l1.641,0.252c0,9.422 0.033,18.844 0,28.266c-0.017,2.907 -0.779,5.767 -2.102,8.365c-2.046,4.02 -5.256,7.323 -8.748,10.072c-3.346,2.632 -7.039,4.832 -10.884,6.663l-0.815,0.387c-6.273,-2.975 -12.275,-6.657 -16.825,-11.859c-3.286,-3.756 -5.7,-8.442 -5.718,-13.669l0,-0.04l0,-28.185l1.641,-0.252c7.007,-1.087 14.002,-2.686 20.905,-4.359c0.204,0.049 0.407,0.099 0.611,0.148Zm-0.617,3.422c-6.288,1.516 -12.589,2.928 -18.961,3.991l-0.11,0.018c0,8.427 -0.029,16.855 0,25.282c0.011,1.852 0.402,3.712 1.095,5.432c1.618,4.012 4.68,7.267 7.97,9.932c3.032,2.455 6.396,4.505 9.883,6.232l0.125,0.062c5.798,-2.852 11.257,-6.356 15.274,-11.583c2.224,-2.894 3.803,-6.37 3.807,-10.142l0,-25.214c-6.345,-1.049 -12.733,-2.482 -19.071,-4.01c0,0 -0.005,-0.001 -0.012,0Z"/><path d="M22.546,24.333l-3.469,4.335l-3.468,-4.335l3.468,-4.336l3.469,4.336Z" style="fill-rule:nonzero;"/><path d="M43.357,45.144l-3.468,4.336l-3.469,-4.336l3.469,-4.336l3.468,4.336Z" style="fill-rule:nonzero;"/><path d="M51.248,28.672l-35.962,23.975l-1.924,-2.886l35.962,-23.975c0.641,0.962 1.283,1.924 1.924,2.886Z"/><path d="M51.257,17.104l-41.624,27.749l-1.924,-2.886l41.624,-27.749c0.641,0.962 1.282,1.924 1.924,2.886Z"/></svg>